<svg viewBox="0 0 32 32" width="32" height="32" xmlns="http://www.w3.org/2000/svg" fill="rgb(234,62,148)" fill-opacity="0.8">
<path d="M18.321 10.307l0 18.479l4.017 -3.213l3.213 6.427l4.017 -1.607l-3.214 -6.427l4.821 0l0.803 -0.804l-13.658 -12.855zM7.703 21.413l-1.15 6.325c-0.641 2.97 -4.791 2.019 -4.374 -0.795l1.005 -5.529l-0.301 0c-2.251 -0.063 -3.163 -4.357 0 -4.446c0.369 0 0.74 -0.001 1.109 -0.002l0.808 -4.443l-1.917 0c-2.251 -0.064 -3.163 -4.357 0 -4.447c0.909 0 1.818 -0.003 2.728 -0.009l1.013 -5.574c0.589 -2.722 4.813 -2.168 4.374 0.795l-0.862 4.741c1.212 -0.01 2.424 -0.019 3.636 -0.023l1.003 -5.513c0.613 -2.837 4.803 -2.103 4.374 0.795l-0.862 4.74c0.835 0.011 1.679 -0.077 2.504 0.052c1.617 0.252 2.551 2.452 1.491 3.749l-2.859 -2.691c-0.833 -0.728 -2.193 -0.479 -2.603 0.599c-0.059 0.154 -0.092 0.213 -0.105 0.571l0 6.368l-0.041 0.227l0.041 0l0 4.511l-0.861 0l-1.151 6.325c-0.709 3.286 -4.766 1.853 -4.374 -0.795l1.006 -5.529l-3.632 0m5.249 -8.891l-3.633 0l-0.801 4.412c1.212 -0.011 2.425 -0.023 3.637 -0.029l0.797 -4.383"/>
</svg>
