<svg xmlns="http://www.w3.org/2000/svg" width="16" height="16" fill="context-fill #555" fill-opacity="context-fill-opacity 0.7"><path d="M3.869 0a.625.625 0 0 0-.615.514L2.668 3.75l-1.47.002a.625.625 0 0 0-.622.625v2.377a.625.625 0 0 0 .625.625h.805l-.198 1.09H.624A.625.625 0 0 0 0 9.094v2.412a.625.625 0 0 0 .625.625h.518l-.547 3.01a.625.625 0 0 0 .615.738h2.414a.625.625 0 0 0 .615-.514l.588-3.234h.67l-.547 3.01a.625.625 0 0 0 .616.739H7.98a.63.63 0 0 0 .548-.364 2.02 2.02 0 0 1-1.896-.886h-.316l.09-.5a1.7 1.7 0 0 1-.057-.438v-2.801a1 1 0 0 0-.102-.01h-1.94a.625.625 0 0 0-.616.512l-.588 3.236H1.96l.547-3.012a.625.625 0 0 0-.615-.736H1.25V9.719h1.08a.625.625 0 0 0 .615-.514l.426-2.34a.625.625 0 0 0-.616-.736h-.93v-1.13c.477 0 1.03.001 1.368-.001a.625.625 0 0 0 .61-.514L4.39 1.25h1.146l-.549 3.016a.625.625 0 0 0 .613.736h.748V4.02q0-.135.02-.268H6.35L6.9.736A.625.625 0 0 0 6.283 0zm4.355 0a.625.625 0 0 0-.613.514l-.346 1.895q.103-.063.215-.112l.002-.002a1.87 1.87 0 0 1 1.066-.123l.03.008.167-.93h1.146l-.273 1.505 2.516 2.369v-.747a.625.625 0 0 0-.625-.625h-.803l.547-3.016A.625.625 0 0 0 10.64 0zM5.169 6.129a.625.625 0 0 0-.615.514l-.426 2.34a.625.625 0 0 0 .615.736h1.605V7.444l-.185 1.025h-.67l.197-1.09h.658v-1.25z"/><path d="M7.977 3.443a.63.63 0 0 0-.377.574v9.674a.625.625 0 0 0 1.016.488l1.5-1.199 1.336 2.674a.625.625 0 0 0 .791.301l2.104-.842a.625.625 0 0 0 .326-.859l-1.23-2.46h1.514a.63.63 0 0 0 .442-.183l.42-.421a.625.625 0 0 0-.014-.897l-7.15-6.73a.63.63 0 0 0-.676-.119zm.873 2.02 5.396 5.08H12.43a.625.625 0 0 0-.559.906l1.38 2.756-.938.377-1.426-2.852a.625.625 0 0 0-.95-.209l-1.087.871z"/></svg>
